<svg width="1200" height="360" viewBox="0 0 1200 360" xmlns="http://www.w3.org/2000/svg">
  <defs>
    <linearGradient id="bg" x1="0%" y1="0%" x2="100%" y2="100%">
      <stop offset="0%" stop-color="#0b4a72" />
      <stop offset="100%" stop-color="#1aa6e0" />
    </linearGradient>
    <linearGradient id="text" x1="0%" y1="0%" x2="100%" y2="0%">
      <stop offset="0%" stop-color="#ffffff" />
      <stop offset="100%" stop-color="#d7f3ff" />
    </linearGradient>
  </defs>
  <rect width="1200" height="360" rx="32" fill="url(#bg)" />
  <rect x="40" y="40" width="1120" height="280" rx="30" fill="rgba(255,255,255,0.08)" />
  <g opacity="0.24">
    <rect x="75" y="100" width="320" height="200" rx="26" fill="#ffffff" />
    <rect x="85" y="110" width="80" height="80" rx="18" fill="#0d72a2" />
    <rect x="95" y="130" width="60" height="40" rx="10" fill="#ffffff" />
    <rect x="160" y="120" width="180" height="20" rx="10" fill="#ffffff" />
    <rect x="160" y="150" width="140" height="12" rx="6" fill="#ffffff" />
    <rect x="160" y="175" width="90" height="12" rx="6" fill="#ffffff" />
  </g>
  <path d="M700 60 C760 40 860 40 900 140 C940 240 840 290 780 260 C720 230 700 160 700 60" fill="rgba(255,255,255,0.14)" />
  <path d="M780 120 C820 80 920 80 948 140 C976 200 910 250 860 240 C820 230 780 190 780 120" stroke="#ffffff" stroke-width="3" fill="none" opacity="0.5" />
  <circle cx="930" cy="90" r="38" fill="#ffffff" fill-opacity="0.16" />
  <circle cx="870" cy="240" r="48" fill="#ffffff" fill-opacity="0.12" />
  <circle cx="250" cy="230" r="18" fill="#ffffff" fill-opacity="0.18" />
  <circle cx="300" cy="130" r="12" fill="#ffffff" fill-opacity="0.2" />
  <text x="80" y="135" font-family="Inter, Arial, sans-serif" font-size="56" font-weight="800" fill="url(#text)">Insurance Charges</text>
  <text x="80" y="200" font-family="Inter, Arial, sans-serif" font-size="40" font-weight="600" fill="#e8f7ff">Prediction App</text>
  <text x="80" y="250" font-family="Inter, Arial, sans-serif" font-size="22" fill="#d2ecff">Predict insurance costs from age, BMI, smoking status, family data, and region.</text>
  <g transform="translate(730 130)">
    <rect x="0" y="0" width="160" height="140" rx="28" fill="#0c74a3" opacity="0.95" />
    <path d="M80 30 C95 30 110 40 110 60 C110 90 80 112 80 112 C80 112 50 90 50 60 C50 40 65 30 80 30 Z" fill="#d7f3ff" />
    <path d="M80 52 L80 92" stroke="#0b4a72" stroke-width="10" stroke-linecap="round" />
    <path d="M60 72 L100 72" stroke="#0b4a72" stroke-width="10" stroke-linecap="round" />
    <circle cx="34" cy="34" r="10" fill="#fff" opacity="0.9" />
    <circle cx="126" cy="112" r="8" fill="#fff" opacity="0.7" />
  </g>
</svg>
