<svg width="1200" height="360" viewBox="0 0 1200 360" xmlns="http://www.w3.org/2000/svg">
  <defs>
    <linearGradient id="bg" x1="0%" y1="0%" x2="100%" y2="100%">
      <stop offset="0%" stop-color="#10295a" />
      <stop offset="55%" stop-color="#3e5ba1" />
      <stop offset="100%" stop-color="#7ac7ff" />
    </linearGradient>
    <linearGradient id="text" x1="0%" y1="0%" x2="100%" y2="0%">
      <stop offset="0%" stop-color="#ffffff" />
      <stop offset="100%" stop-color="#d9f5ff" />
    </linearGradient>
  </defs>
  <rect width="1200" height="360" rx="32" fill="url(#bg)" />
  <rect x="40" y="40" width="1120" height="280" rx="32" fill="rgba(255,255,255,0.08)" />
  <path d="M1100 80 C990 70 940 160 900 220 C860 280 790 305 680 250 C570 195 640 110 760 95 C880 80 940 125 1010 145 C1080 165 1110 120 1100 80 Z" fill="rgba(255,255,255,0.12)" />
  <circle cx="180" cy="240" r="34" fill="#ffffff" fill-opacity="0.12" />
  <circle cx="220" cy="120" r="18" fill="#ffffff" fill-opacity="0.14" />
  <circle cx="980" cy="220" r="24" fill="#ffffff" fill-opacity="0.16" />
  <circle cx="880" cy="90" r="16" fill="#ffffff" fill-opacity="0.18" />
  <g opacity="0.4">
    <rect x="720" y="100" width="220" height="170" rx="30" fill="#ffffff" />
    <rect x="740" y="120" width="180" height="34" rx="18" fill="#3f79c0" />
    <rect x="740" y="168" width="140" height="12" rx="6" fill="#d6e7ff" />
    <rect x="740" y="190" width="180" height="12" rx="6" fill="#d6e7ff" />
    <rect x="740" y="212" width="120" height="12" rx="6" fill="#d6e7ff" />
  </g>
  <text x="80" y="130" font-family="Inter, Arial, sans-serif" font-size="58" font-weight="800" fill="url(#text)">Insurance Charges</text>
  <text x="80" y="200" font-family="Inter, Arial, sans-serif" font-size="42" font-weight="700" fill="#e8f7ff">Prediction App</text>
  <text x="80" y="250" font-family="Inter, Arial, sans-serif" font-size="22" fill="#d2edff">Estimate insurance costs using age, BMI, smoking status, family data, and region.</text>
  <g transform="translate(760 110)">
    <rect x="0" y="0" width="220" height="140" rx="24" fill="#ffffff" opacity="0.14" />
    <rect x="16" y="16" width="60" height="60" rx="16" fill="#7bd2ff" />
    <path d="M42 30 L58 46 L90 18" fill="none" stroke="#10295a" stroke-width="10" stroke-linecap="round" stroke-linejoin="round" />
    <path d="M36 96 C52 108 80 106 94 94" fill="none" stroke="#ffffff" stroke-width="10" opacity="0.9" />
    <rect x="100" y="18" width="94" height="28" rx="12" fill="#d6f2ff" />
    <rect x="100" y="56" width="94" height="28" rx="12" fill="#d6f2ff" />
    <rect x="100" y="94" width="54" height="16" rx="8" fill="#d6f2ff" />
  </g>
</svg>
